<?xml version="1.0" standalone="no"?><svg xmlns="http://www.w3.org/2000/svg" viewBox="0 0 1440 320"><path fill="#0099ff" fill-opacity="1" d="M0,128L40,160C80,192,160,256,240,245.3C320,235,400,149,480,138.7C560,128,640,192,720,224C800,256,880,256,960,213.3C1040,171,1120,85,1200,90.7C1280,96,1360,192,1400,240L1440,288L1440,320L1400,320C1360,320,1280,320,1200,320C1120,320,1040,320,960,320C880,320,800,320,720,320C640,320,560,320,480,320C400,320,320,320,240,320C160,320,80,320,40,320L0,320Z"></path></svg>